<svg width="557" height="41" viewBox="0 0 557 41" fill="none" xmlns="http://www.w3.org/2000/svg">
<path d="M30.2254 18.4833C29.72 18.9917 29.3331 19.6053 29.092 20.2802C28.851 20.9553 28.7618 21.6751 28.8307 22.3886L28.8067 22.3646C28.8776 23.2045 28.7643 24.0496 28.4748 24.8412C28.1854 25.6326 27.7267 26.3514 27.1308 26.9474C26.5348 27.5433 25.816 28.0021 25.0244 28.2914C24.233 28.5809 23.3878 28.6942 22.548 28.6233L22.572 28.6473C21.5675 28.5538 20.5586 28.7723 19.6827 29.2733C18.807 29.7742 18.107 30.533 17.6783 31.4464C17.2496 32.3597 17.113 33.3829 17.2871 34.3768C17.4614 35.3705 17.9378 36.2864 18.6515 36.9994C19.3652 37.7125 20.2815 38.1881 21.2754 38.3613C22.2694 38.5346 23.2924 38.397 24.2054 37.9676C25.1183 37.538 25.8764 36.8374 26.3766 35.9612C26.8767 35.0849 27.0944 34.0758 27 33.0713L27.0254 33.0953C26.9544 32.2556 27.0676 31.4104 27.3571 30.6188C27.6466 29.8273 28.1054 29.1085 28.7012 28.5125C29.2972 27.9166 30.016 27.4578 30.8075 27.1685C31.5991 26.879 32.4442 26.7657 33.284 26.8366L33.2587 26.8126C34.0792 26.8864 34.9052 26.7518 35.66 26.4214C36.4147 26.091 37.0739 25.5754 37.5763 24.9225C38.0787 24.2695 38.4083 23.5002 38.5342 22.6861C38.6602 21.8718 38.5786 21.039 38.297 20.2646C38.0154 19.4904 37.5428 18.7997 36.9232 18.2566C36.3036 17.7136 35.557 17.3357 34.7524 17.1581C33.9479 16.9805 33.1115 17.0088 32.3208 17.2404C31.5302 17.4721 30.8108 17.8996 30.2294 18.4833H30.2254Z" fill="black"/>
<path d="M20.3894 25.5031L20.364 25.4791C21.0778 25.551 21.7986 25.4634 22.4744 25.2226C23.1502 24.9818 23.764 24.5939 24.2715 24.0868C24.7788 23.5798 25.1674 22.9662 25.4086 22.2906C25.6499 21.615 25.738 20.8943 25.6667 20.1804L25.692 20.2044C25.6211 19.3646 25.7344 18.5195 26.0238 17.7279C26.3132 16.9364 26.772 16.2176 27.3679 15.6216C27.9639 15.0258 28.6827 14.567 29.4742 14.2776C30.2658 13.9881 31.1108 13.8749 31.9507 13.9458L31.9254 13.9218C32.93 14.0162 33.9392 13.7983 34.8155 13.2979C35.6919 12.7976 36.3924 12.0391 36.8218 11.1259C37.2511 10.2128 37.3883 9.18939 37.2147 8.19537C37.0411 7.20136 36.5651 6.28512 35.8515 5.5716C35.138 4.85809 34.2218 4.38204 33.2278 4.20841C32.2338 4.03477 31.2104 4.17199 30.2972 4.60135C29.384 5.03069 28.6256 5.73129 28.1252 6.60757C27.6248 7.48384 27.407 8.49313 27.5014 9.49777L27.4774 9.47244C27.5484 10.3123 27.4354 11.1575 27.146 11.9492C26.8567 12.7408 26.3979 13.4597 25.802 14.0558C25.206 14.6516 24.4871 15.1104 23.6955 15.3998C22.9038 15.6891 22.0586 15.8022 21.2187 15.7311L21.2427 15.7564C20.529 15.6846 19.808 15.7722 19.1323 16.013C18.4566 16.2536 17.8427 16.6416 17.3352 17.1487C16.8278 17.6558 16.4394 18.2694 16.198 18.945C15.9568 19.6206 15.8687 20.3412 15.94 21.0551L15.916 21.0311C15.9867 21.8708 15.8732 22.7159 15.5838 23.5074C15.2942 24.2987 14.8355 25.0175 14.2396 25.6134C13.6437 26.2092 12.925 26.6679 12.1336 26.9575C11.3422 27.247 10.4971 27.3604 9.65738 27.2898L9.68138 27.3138C8.67674 27.2194 7.66744 27.4372 6.79116 27.9376C5.9149 28.438 5.2143 29.1964 4.78495 30.1096C4.35559 31.0228 4.21836 32.0462 4.392 33.0402C4.56564 34.0342 5.0417 34.9504 5.7552 35.6639C6.46872 36.3775 7.38496 36.8535 8.37898 37.0271C9.37299 37.2007 10.3964 37.0635 11.3095 36.6342C12.2227 36.2048 12.9812 35.5043 13.4815 34.628C13.9819 33.7516 14.1998 32.7424 14.1054 31.7378L14.1307 31.7618C14.0598 30.9219 14.1731 30.0768 14.4626 29.2852C14.7519 28.4938 15.2107 27.775 15.8066 27.179C16.4026 26.5831 17.1214 26.1243 17.9128 25.835C18.7044 25.5455 19.5495 25.4322 20.3894 25.5031Z" fill="#006B6A"/>
<path d="M11.4532 22.8269C11.9586 22.3186 12.3455 21.705 12.5864 21.0299C12.8272 20.3549 12.9161 19.6349 12.8466 18.9215L12.8719 18.9455C12.801 18.1055 12.9142 17.2601 13.2039 16.4683C13.4935 15.6766 13.9524 14.9577 14.5487 14.3617C15.145 13.7657 15.864 13.307 16.6559 13.0178C17.4478 12.7285 18.2933 12.6156 19.1333 12.6869L19.1079 12.6629C20.1122 12.757 21.1211 12.539 21.997 12.0387C22.8729 11.5383 23.573 10.78 24.0022 9.86717C24.4312 8.95429 24.5683 7.93129 24.3947 6.93765C24.2211 5.94401 23.7451 5.02812 23.0319 4.31487C22.3187 3.60161 21.4027 3.12572 20.4091 2.95209C19.4155 2.77845 18.3925 2.91555 17.4797 3.34464C16.5667 3.77373 15.8085 4.47396 15.3082 5.34983C14.8078 6.22569 14.5898 7.23457 14.6839 8.23887L14.6599 8.21487C14.7308 9.05467 14.6175 9.89983 14.3281 10.6913C14.0386 11.4829 13.5799 12.2017 12.984 12.7976C12.3881 13.3936 11.6692 13.8523 10.8777 14.1417C10.0862 14.4311 9.24105 14.5445 8.40125 14.4735L8.42525 14.4975C7.60468 14.4239 6.7788 14.5587 6.02416 14.8893C5.26952 15.2198 4.61052 15.7355 4.10824 16.3886C3.60596 17.0415 3.27665 17.8109 3.15081 18.625C3.02498 19.4393 3.1067 20.2721 3.3884 21.0462C3.67009 21.8205 4.14266 22.511 4.7623 23.0539C5.38194 23.597 6.12861 23.9747 6.93312 24.1523C7.73761 24.3298 8.57392 24.3014 9.36454 24.0698C10.1552 23.8381 10.8745 23.4106 11.4559 22.8269H11.4532Z" fill="black"/>
<path d="M52.756 9.52783H56.716V28.7985H52.756V9.52783Z" fill="black"/>
<path d="M58.9587 22.2003C58.9532 20.8155 59.3588 19.46 60.1242 18.3059C60.8895 17.1517 61.9802 16.2507 63.258 15.7169C64.5359 15.1831 65.9433 15.0405 67.3023 15.3073C68.6612 15.5741 69.9104 16.2381 70.8916 17.2155C71.8728 18.1927 72.5419 19.4392 72.8141 20.7971C73.0864 22.1549 72.9495 23.5631 72.4208 24.8431C71.8922 26.1229 70.9955 27.2173 69.8444 27.9872C68.6932 28.7572 67.3396 29.1683 65.9547 29.1683C65.0355 29.1788 64.1234 29.0059 63.2716 28.6597C62.4199 28.3136 61.6457 27.8012 60.9944 27.1525C60.3429 26.5037 59.8275 25.7316 59.478 24.8813C59.1284 24.0311 58.9519 23.1196 58.9587 22.2003ZM68.9907 22.2003C68.9742 21.6033 68.782 21.0245 68.4384 20.5361C68.0947 20.0479 67.6147 19.6716 67.0584 19.4547C66.502 19.2376 65.8941 19.1893 65.3105 19.316C64.7269 19.4427 64.1936 19.7384 63.7772 20.1665C63.361 20.5945 63.0799 21.1359 62.9696 21.7228C62.8592 22.3096 62.9242 22.916 63.1566 23.4661C63.389 24.0163 63.7783 24.4856 64.2759 24.8156C64.7736 25.1456 65.3576 25.3216 65.9547 25.3216C66.3636 25.3325 66.7704 25.2585 67.1495 25.1044C67.5284 24.9503 67.8714 24.7193 68.1566 24.4261C68.4418 24.1328 68.6632 23.7836 68.8067 23.4005C68.9503 23.0175 69.013 22.6088 68.9907 22.2003Z" fill="black"/>
<path d="M88.7333 15.6V28.1334C88.7333 32.568 85.2747 34.4427 81.764 34.4427C80.528 34.5352 79.2903 34.2855 78.1867 33.7211C77.0832 33.1566 76.1564 32.2991 75.508 31.2427L78.8867 29.2894C79.1592 29.84 79.5935 30.2943 80.1312 30.5915C80.6691 30.8886 81.2848 31.0144 81.896 30.952C82.2867 31.0062 82.6845 30.9718 83.0601 30.8514C83.4356 30.731 83.7793 30.5276 84.0657 30.2566C84.3521 29.9854 84.5739 29.6534 84.7147 29.2848C84.8553 28.9164 84.9113 28.5211 84.8787 28.128V26.9214C84.4149 27.4887 83.8248 27.9395 83.1553 28.2375C82.4859 28.5355 81.756 28.6724 81.024 28.6374C79.2824 28.5824 77.6305 27.852 76.418 26.6006C75.2055 25.3492 74.5275 23.6751 74.5275 21.9327C74.5275 20.1903 75.2055 18.5162 76.418 17.2648C77.6305 16.0134 79.2824 15.283 81.024 15.228C81.756 15.193 82.4859 15.3299 83.1553 15.6279C83.8248 15.9259 84.4149 16.3767 84.8787 16.944V15.5974L88.7333 15.6ZM84.88 21.9347C84.9067 21.2966 84.7416 20.665 84.4063 20.1214C84.0709 19.5776 83.5805 19.1468 82.9983 18.8843C82.416 18.6216 81.7685 18.5394 81.1391 18.6479C80.5096 18.7564 79.9271 19.0508 79.4663 19.4934C79.0056 19.9358 78.6879 20.5059 78.5539 21.1304C78.42 21.755 78.476 22.4054 78.7149 22.9978C78.9537 23.5902 79.3644 24.0976 79.894 24.4547C80.4236 24.8118 81.048 25.0022 81.6867 25.0014C82.1028 25.0304 82.5203 24.972 82.9124 24.8299C83.3045 24.6878 83.6625 24.465 83.9633 24.1762C84.2641 23.8872 84.5012 23.5386 84.6591 23.1524C84.8169 22.7664 84.8923 22.3516 84.88 21.9347Z" fill="black"/>
<path d="M90.9759 22.2003C90.9704 20.8155 91.3759 19.46 92.1414 18.3059C92.9067 17.1517 93.9974 16.2507 95.2752 15.7169C96.5531 15.1831 97.9606 15.0405 99.3195 15.3073C100.678 15.5741 101.928 16.2381 102.909 17.2155C103.89 18.1927 104.559 19.4392 104.831 20.7971C105.104 22.1549 104.967 23.5631 104.438 24.8431C103.909 26.1229 103.013 27.2173 101.862 27.9872C100.71 28.7572 99.3568 29.1683 97.9719 29.1683C97.0527 29.1788 96.1404 29.0059 95.2888 28.6597C94.4371 28.3136 93.663 27.8012 93.0116 27.1525C92.3602 26.5037 91.8447 25.7316 91.4952 24.8813C91.1456 24.0311 90.9691 23.1196 90.9759 22.2003ZM101.008 22.2003C100.991 21.6033 100.799 21.0245 100.456 20.5361C100.112 20.0479 99.6319 19.6716 99.0756 19.4547C98.5192 19.2376 97.9112 19.1893 97.3278 19.316C96.7442 19.4427 96.2108 19.7384 95.7944 20.1665C95.3782 20.5945 95.0971 21.1359 94.9867 21.7228C94.8763 22.3096 94.9414 22.916 95.1738 23.4661C95.4062 24.0163 95.7955 24.4856 96.2931 24.8156C96.7908 25.1456 97.3747 25.3216 97.9719 25.3216C98.3808 25.3325 98.7876 25.2585 99.1666 25.1044C99.5456 24.9503 99.8886 24.7193 100.174 24.4261C100.459 24.1328 100.68 23.7836 100.824 23.4005C100.967 23.0175 101.03 22.6088 101.008 22.2003Z" fill="black"/>
<path d="M106.815 12.063C106.815 11.5931 106.954 11.1337 107.215 10.743C107.476 10.3523 107.847 10.0477 108.281 9.86788C108.716 9.68804 109.193 9.64099 109.654 9.73267C110.115 9.82435 110.538 10.0506 110.871 10.3829C111.203 10.7152 111.429 11.1386 111.521 11.5995C111.613 12.0604 111.566 12.5381 111.386 12.9723C111.206 13.4064 110.901 13.7775 110.511 14.0386C110.12 14.2997 109.661 14.439 109.191 14.439C108.562 14.4327 107.962 14.1805 107.517 13.7362C107.073 13.2919 106.821 12.6912 106.815 12.063ZM107.215 15.6003H111.176V28.8003H107.209L107.215 15.6003Z" fill="black"/>
<path d="M128.275 22.1998C128.32 23.0722 128.193 23.945 127.901 24.7681C127.608 25.5912 127.155 26.3482 126.569 26.9958C125.983 27.6433 125.274 28.1686 124.484 28.5414C123.694 28.9141 122.838 29.127 121.965 29.1678C121.231 29.2078 120.498 29.0841 119.818 28.8056C119.138 28.5269 118.528 28.1005 118.033 27.5572V34.0785H114.073V15.5998H118.033V16.8398C118.528 16.2969 119.138 15.8708 119.818 15.5925C120.498 15.3141 121.232 15.1905 121.965 15.2305C122.838 15.2712 123.694 15.484 124.485 15.8568C125.275 16.2296 125.983 16.7549 126.57 17.4026C127.156 18.0504 127.609 18.8077 127.901 19.631C128.194 20.4542 128.321 21.3273 128.275 22.1998ZM124.315 22.1998C124.299 21.5821 124.102 20.9826 123.747 20.4764C123.393 19.9702 122.897 19.5798 122.322 19.3542C121.746 19.1285 121.117 19.0774 120.513 19.2076C119.909 19.3376 119.357 19.6429 118.925 20.0853C118.494 20.5278 118.203 21.0876 118.088 21.6949C117.973 22.3021 118.04 22.9296 118.28 23.499C118.52 24.0685 118.923 24.5544 119.438 24.8961C119.953 25.2377 120.557 25.42 121.175 25.4198C121.599 25.4388 122.022 25.3677 122.417 25.2114C122.812 25.0553 123.17 24.8173 123.466 24.5133C123.763 24.2092 123.991 23.846 124.138 23.4473C124.284 23.0486 124.344 22.6234 124.315 22.1998Z" fill="black"/>
<path d="M140.495 24.8389C140.495 27.8749 137.856 29.1683 135.005 29.1683C133.853 29.2725 132.697 29.0291 131.685 28.4689C130.673 27.9089 129.853 27.0583 129.329 26.0269L132.76 24.0736C132.899 24.5502 133.197 24.9651 133.604 25.2484C134.012 25.5319 134.505 25.6669 135 25.6309C135.949 25.6309 136.425 25.3402 136.425 24.8136C136.425 23.3602 129.931 24.1269 129.931 19.5603C129.931 16.6816 132.36 15.2309 135.105 15.2309C136.137 15.1983 137.159 15.4431 138.064 15.9397C138.969 16.4365 139.725 17.1669 140.252 18.0549L136.873 19.8763C136.725 19.5305 136.479 19.236 136.164 19.0295C135.849 18.8229 135.481 18.7136 135.105 18.7149C134.419 18.7149 133.996 18.9816 133.996 19.4536C134.001 20.9589 140.495 19.9549 140.495 24.8389Z" fill="black"/>
<path d="M154.96 15.6001V28.8001H151V27.5588C150.543 28.1065 149.963 28.5381 149.307 28.8181C148.651 29.0981 147.939 29.2185 147.227 29.1694C144.56 29.1694 142.293 27.2694 142.293 23.7028V15.6001H146.253V23.1228C146.22 23.4372 146.256 23.755 146.359 24.0541C146.46 24.3533 146.627 24.6266 146.845 24.855C147.064 25.0834 147.329 25.2614 147.624 25.3768C147.917 25.4921 148.233 25.542 148.549 25.5228C150.001 25.5228 151.004 24.6788 151.004 22.8041V15.6041L154.96 15.6001Z" fill="black"/>
<path d="M177.667 20.6952V28.7992H173.707V21.0379C173.707 19.7179 173.073 18.8739 171.807 18.8739C170.487 18.8739 169.747 19.7979 169.747 21.3552V28.7992H165.788V21.0379C165.788 19.7179 165.155 18.8739 163.887 18.8739C162.567 18.8739 161.828 19.7979 161.828 21.3552V28.7992H157.868V15.5992H161.828V16.8126C162.239 16.2743 162.777 15.8474 163.395 15.571C164.013 15.2944 164.691 15.1772 165.365 15.2299C166.043 15.1967 166.717 15.3398 167.324 15.645C167.929 15.95 168.445 16.4071 168.823 16.9712C169.261 16.381 169.843 15.9116 170.512 15.6071C171.181 15.3026 171.917 15.1728 172.651 15.2299C175.681 15.2312 177.667 17.3952 177.667 20.6952Z" fill="black"/>
<path d="M181.016 15.5194C182.639 15.5194 183.955 14.2037 183.955 12.5808C183.955 10.9578 182.639 9.64209 181.016 9.64209C179.393 9.64209 178.077 10.9578 178.077 12.5808C178.077 14.2037 179.393 15.5194 181.016 15.5194Z" fill="black"/>
</svg>
